<svg xmlns="http://www.w3.org/2000/svg" xmlns:xlink="http://www.w3.org/1999/xlink" viewBox="0 0 1920 1080"><defs><style>.cls-1{fill:none;}.cls-2{font-size:24px;fill:#fff;font-family:RobotoMono-Regular, Roboto Mono;}.cls-3{fill:#36f;}.cls-4{fill:url(#New_Pattern_Swatch_13);}</style><pattern id="New_Pattern_Swatch_13" data-name="New Pattern Swatch 13" width="515.96" height="704.25" patternTransform="translate(0 1205.11)" patternUnits="userSpaceOnUse" viewBox="0 0 515.96 704.25"><rect class="cls-1" width="515.96" height="704.25"/><text class="cls-2" transform="translate(490.77 819.51) rotate(-45)">transprivacy</text><text class="cls-2" transform="translate(387.58 819.51) rotate(-45)">transprivacy</text><text class="cls-2" transform="translate(284.39 819.51) rotate(-45)">transprivacy</text><text class="cls-2" transform="translate(181.19 819.51) rotate(-45)">transprivacy</text><text class="cls-2" transform="translate(78 819.51) rotate(-45)">transprivacy</text><text class="cls-2" transform="translate(-25.19 819.51) rotate(-45)">transprivacy</text><text class="cls-2" transform="translate(428.85 678.66) rotate(-45)">transprivacy</text><text class="cls-2" transform="translate(428.85 721.13) rotate(-45)">agreement</text><text class="cls-2" transform="translate(325.66 678.66) rotate(-45)">transprivacy</text><text class="cls-2" transform="translate(325.66 721.13) rotate(-45)">agreement</text><text class="cls-2" transform="translate(222.47 678.66) rotate(-45)">transprivacy</text><text class="cls-2" transform="translate(222.47 721.13) rotate(-45)">agreement</text><text class="cls-2" transform="translate(119.28 678.66) rotate(-45)">transprivacy</text><text class="cls-2" transform="translate(119.28 721.13) rotate(-45)">agreement</text><text class="cls-2" transform="translate(16.09 678.66) rotate(-45)">transprivacy</text><text class="cls-2" transform="translate(16.09 721.13) rotate(-45)">agreement</text><text class="cls-2" transform="translate(-87.1 678.66) rotate(-45)">transprivacy</text><text class="cls-2" transform="translate(-87.1 721.13) rotate(-45)">agreement</text><text class="cls-2" transform="translate(470.13 537.81) rotate(-45)">transprivacy</text><text class="cls-2" transform="translate(470.13 580.28) rotate(-45)">agreement</text><text class="cls-2" transform="translate(366.94 537.81) rotate(-45)">transprivacy</text><text class="cls-2" transform="translate(366.94 580.28) rotate(-45)">agreement</text><text class="cls-2" transform="translate(263.75 537.81) rotate(-45)">transprivacy</text><text class="cls-2" transform="translate(263.75 580.28) rotate(-45)">agreement</text><text class="cls-2" transform="translate(160.56 537.81) rotate(-45)">transprivacy</text><text class="cls-2" transform="translate(160.56 580.28) rotate(-45)">agreement</text><text class="cls-2" transform="translate(57.37 537.81) rotate(-45)">transprivacy</text><text class="cls-2" transform="translate(57.37 580.28) rotate(-45)">agreement</text><text class="cls-2" transform="translate(-45.83 537.81) rotate(-45)">transprivacy</text><text class="cls-2" transform="translate(-45.83 580.28) rotate(-45)">agreement</text><text class="cls-2" transform="translate(511.41 396.95) rotate(-45)">transprivacy</text><text class="cls-2" transform="translate(511.41 439.43) rotate(-45)">agreement</text><text class="cls-2" transform="translate(408.22 396.95) rotate(-45)">transprivacy</text><text class="cls-2" transform="translate(408.22 439.43) rotate(-45)">agreement</text><text class="cls-2" transform="translate(305.02 396.95) rotate(-45)">transprivacy</text><text class="cls-2" transform="translate(305.02 439.43) rotate(-45)">agreement</text><text class="cls-2" transform="translate(201.83 396.95) rotate(-45)">transprivacy</text><text class="cls-2" transform="translate(201.83 439.43) rotate(-45)">agreement</text><text class="cls-2" transform="translate(98.64 396.95) rotate(-45)">transprivacy</text><text class="cls-2" transform="translate(98.64 439.43) rotate(-45)">agreement</text><text class="cls-2" transform="translate(-4.55 396.95) rotate(-45)">transprivacy</text><text class="cls-2" transform="translate(-4.55 439.43) rotate(-45)">agreement</text><text class="cls-2" transform="translate(-107.74 396.95) rotate(-45)">transprivacy</text><text class="cls-2" transform="translate(449.49 256.1) rotate(-45)">transprivacy</text><text class="cls-2" transform="translate(449.49 298.57) rotate(-45)">agreement</text><text class="cls-2" transform="translate(346.3 256.1) rotate(-45)">transprivacy</text><text class="cls-2" transform="translate(346.3 298.57) rotate(-45)">agreement</text><text class="cls-2" transform="translate(243.11 256.1) rotate(-45)">transprivacy</text><text class="cls-2" transform="translate(243.11 298.57) rotate(-45)">agreement</text><text class="cls-2" transform="translate(139.92 256.1) rotate(-45)">transprivacy</text><text class="cls-2" transform="translate(139.92 298.57) rotate(-45)">agreement</text><text class="cls-2" transform="translate(36.73 256.1) rotate(-45)">transprivacy</text><text class="cls-2" transform="translate(36.73 298.57) rotate(-45)">agreement</text><text class="cls-2" transform="translate(-66.46 256.1) rotate(-45)">transprivacy</text><text class="cls-2" transform="translate(-66.46 298.57) rotate(-45)">agreement</text><text class="cls-2" transform="translate(490.77 115.25) rotate(-45)">transprivacy</text><text class="cls-2" transform="translate(490.77 157.72) rotate(-45)">agreement</text><text class="cls-2" transform="translate(387.58 115.25) rotate(-45)">transprivacy</text><text class="cls-2" transform="translate(387.58 157.72) rotate(-45)">agreement</text><text class="cls-2" transform="translate(284.39 115.25) rotate(-45)">transprivacy</text><text class="cls-2" transform="translate(284.39 157.72) rotate(-45)">agreement</text><text class="cls-2" transform="translate(181.19 115.25) rotate(-45)">transprivacy</text><text class="cls-2" transform="translate(181.19 157.72) rotate(-45)">agreement</text><text class="cls-2" transform="translate(78 115.25) rotate(-45)">transprivacy</text><text class="cls-2" transform="translate(78 157.72) rotate(-45)">agreement</text><text class="cls-2" transform="translate(-25.19 115.25) rotate(-45)">transprivacy</text><text class="cls-2" transform="translate(-25.19 157.72) rotate(-45)">agreement</text><text class="cls-2" transform="translate(428.85 16.87) rotate(-45)">agreement</text><text class="cls-2" transform="translate(325.66 16.87) rotate(-45)">agreement</text><text class="cls-2" transform="translate(222.47 16.87) rotate(-45)">agreement</text><text class="cls-2" transform="translate(119.28 16.87) rotate(-45)">agreement</text><text class="cls-2" transform="translate(16.09 16.87) rotate(-45)">agreement</text><text class="cls-2" transform="translate(-87.1 16.87) rotate(-45)">agreement</text></pattern></defs><g id="Layer_2" data-name="Layer 2"><g id="Layer_1-2" data-name="Layer 1"><rect class="cls-3" width="1920" height="1080"/><rect class="cls-4" width="1920" height="1080"/></g></g></svg>