<svg xmlns="http://www.w3.org/2000/svg" viewBox="0 0 38.5 38.58"><defs><style>.cls-1{fill:#fff;}.cls-2{fill:#808285;}</style></defs><g id="Layer_2" data-name="Layer 2"><g id="Layer_1-2" data-name="Layer 1"><rect class="cls-1" y="0.04" width="38.5" height="38.5"/><path class="cls-2" d="M19.25,38.08a24.54,24.54,0,0,1-7.35-1c-4.52-1.41-4.48-2.77-4.46-3.76a1.84,1.84,0,0,1,.33-1,1.17,1.17,0,0,1,.28-.3,1.32,1.32,0,0,0,.47-1.34c-.31-5.74,2.8-8.34,5.47-9.51,1.82-.8,2.38-1.79,2.54-2.49A3,3,0,0,0,15.65,16a6.76,6.76,0,0,1-1.56-3.2,3,3,0,0,0-.54-1.34l-.07-.09a3.33,3.33,0,0,1-1-2.18A2.24,2.24,0,0,1,13,7.67l.28-.31c.46-.47.58-.74.61-2.09C13.9,2.51,16.18.5,19.25.5s5.35,2,5.4,4.77c0,1.35.15,1.62.61,2.09l.28.31a2.24,2.24,0,0,1,.51,1.47,3.33,3.33,0,0,1-1,2.18L25,11.4a3.07,3.07,0,0,0-.54,1.35A6.8,6.8,0,0,1,22.85,16,3,3,0,0,0,22,18.64c.16.7.72,1.69,2.54,2.49,2.67,1.17,5.78,3.77,5.47,9.51A1.32,1.32,0,0,0,30.45,32a1.17,1.17,0,0,1,.28.3,1.84,1.84,0,0,1,.33,1c0,1,.06,2.35-4.46,3.76A24.54,24.54,0,0,1,19.25,38.08Z"/><path class="cls-1" d="M19.25,1C22,1,24.1,2.8,24.15,5.28c0,1.41.16,1.82.75,2.43l.25.27a1.74,1.74,0,0,1,.4,1.14,2.84,2.84,0,0,1-.9,1.87l-.08.09a3.42,3.42,0,0,0-.65,1.55,6.31,6.31,0,0,1-1.44,3,3.47,3.47,0,0,0-1,3.12c.18.81.82,2,2.83,2.84,3.67,1.61,5.41,4.64,5.17,9a1.83,1.83,0,0,0,.66,1.76.64.64,0,0,1,.16.17,1.27,1.27,0,0,1,.26.76c0,.84.05,2-4.11,3.27a23.91,23.91,0,0,1-7.2,1,23.91,23.91,0,0,1-7.2-1c-4.16-1.3-4.13-2.44-4.11-3.27a1.27,1.27,0,0,1,.26-.76.64.64,0,0,1,.16-.17A1.83,1.83,0,0,0,9,30.61c-.24-4.38,1.5-7.41,5.17-9,2-.88,2.65-2,2.83-2.84a3.47,3.47,0,0,0-1-3.12,6.31,6.31,0,0,1-1.44-3,3.42,3.42,0,0,0-.65-1.55L13.85,11A2.84,2.84,0,0,1,13,9.12,1.74,1.74,0,0,1,13.35,8l.25-.27c.59-.61.72-1,.75-2.43C14.4,2.8,16.46,1,19.25,1m0-1c-3.3,0-5.84,2.18-5.9,5.26,0,1.64-.2,1.39-.77,2.09A2.76,2.76,0,0,0,12,9.15a3.92,3.92,0,0,0,1.23,2.58c.59.68.26,2.46,2.09,4.55,1.44,1.65,1,3.31-1.48,4.39-3.35,1.47-6.07,4.48-5.77,10,.06,1-.28.71-.67,1.35a2.24,2.24,0,0,0-.41,1.26c0,1.47.41,2.87,4.81,4.24a25,25,0,0,0,7.5,1.06,25,25,0,0,0,7.5-1.06c4.4-1.37,4.84-2.77,4.81-4.24A2.24,2.24,0,0,0,31.15,32c-.39-.64-.73-.34-.67-1.35.3-5.52-2.42-8.53-5.77-10-2.48-1.08-2.92-2.74-1.48-4.39,1.83-2.09,1.5-3.87,2.09-4.55a3.92,3.92,0,0,0,1.23-2.58,2.76,2.76,0,0,0-.63-1.8c-.57-.7-.74-.45-.77-2.09C25.09,2.18,22.55,0,19.25,0Z"/></g></g></svg>