<svg id="Layer_1" data-name="Layer 1" xmlns="http://www.w3.org/2000/svg" viewBox="0 0 16 16"><defs><style>.cls-1{fill:#fff;}.cls-2{fill:#808285;}</style></defs><rect class="cls-1" x="0.02" y="0.02" width="15.97" height="15.97"/><path class="cls-2" d="M8,15.75a10,10,0,0,1-3-.43c-1.85-.57-1.83-1.11-1.82-1.51a.64.64,0,0,1,.13-.4.27.27,0,0,1,.1-.11.59.59,0,0,0,.21-.59A3.68,3.68,0,0,1,5.84,8.8c.76-.33,1-.76,1.07-1.06a1.3,1.3,0,0,0-.37-1.15A2.74,2.74,0,0,1,5.9,5.28a1.27,1.27,0,0,0-.23-.58,1.42,1.42,0,0,1-.45-.91.87.87,0,0,1,.21-.58c0-.06.08-.09.11-.13.2-.2.25-.32.26-.89A2,2,0,0,1,8,.25a2,2,0,0,1,2.2,1.94c0,.57.06.69.26.89,0,0,.07.07.11.13a.87.87,0,0,1,.21.58,1.38,1.38,0,0,1-.42.88,1.24,1.24,0,0,0-.26.61,2.78,2.78,0,0,1-.64,1.31,1.3,1.3,0,0,0-.37,1.15c.06.3.31.73,1.08,1.06a3.7,3.7,0,0,1,2.24,3.91.59.59,0,0,0,.21.59.27.27,0,0,1,.1.11.62.62,0,0,1,.13.4c0,.4,0,.94-1.81,1.51A10,10,0,0,1,8,15.75Z"/><path class="cls-1" d="M8,.5A1.8,1.8,0,0,1,10,2.19c0,.61.07.8.33,1.07l.1.11a.66.66,0,0,1,.15.41,1.17,1.17,0,0,1-.39.76,1.47,1.47,0,0,0-.28.68,2.49,2.49,0,0,1-.59,1.2,1.55,1.55,0,0,0-.43,1.37A1.87,1.87,0,0,0,10.06,9a3.43,3.43,0,0,1,2.1,3.66.85.85,0,0,0,.3.8l0,0a.41.41,0,0,1,.09.28c0,.31,0,.75-1.64,1.27a10.13,10.13,0,0,1-3,.41,10.13,10.13,0,0,1-3-.41c-1.66-.52-1.65-1-1.64-1.27a.41.41,0,0,1,.09-.28l0,0a.85.85,0,0,0,.3-.8A3.43,3.43,0,0,1,5.94,9,1.87,1.87,0,0,0,7.16,7.79a1.55,1.55,0,0,0-.43-1.37,2.49,2.49,0,0,1-.59-1.2,1.52,1.52,0,0,0-.31-.72,1.09,1.09,0,0,1-.36-.72.66.66,0,0,1,.15-.41l.1-.11C6,3,6,2.8,6.05,2.19A1.8,1.8,0,0,1,8,.5M8,0A2.29,2.29,0,0,0,5.55,2.18c0,.68-.08.58-.32.87A1.14,1.14,0,0,0,5,3.8a1.64,1.64,0,0,0,.51,1.07c.25.28.11,1,.87,1.88.6.69.41,1.37-.62,1.82a3.93,3.93,0,0,0-2.39,4.15c0,.42-.12.3-.28.56a.92.92,0,0,0-.16.52c0,.61.17,1.19,2,1.76A10.29,10.29,0,0,0,8,16a10.29,10.29,0,0,0,3.11-.44c1.82-.57,2-1.15,2-1.76a.92.92,0,0,0-.16-.52c-.16-.26-.31-.14-.28-.56a3.93,3.93,0,0,0-2.39-4.15c-1-.45-1.22-1.13-.62-1.82.76-.87.62-1.6.87-1.88A1.64,1.64,0,0,0,11,3.8a1.14,1.14,0,0,0-.26-.75c-.24-.29-.31-.19-.32-.87A2.29,2.29,0,0,0,8,0Z"/></svg>