<svg xmlns="http://www.w3.org/2000/svg" xmlns:xlink="http://www.w3.org/1999/xlink" viewBox="0 0 38.4 38.4"><defs><style>.cls-1{fill:none;}.cls-2{fill:#fff;}.cls-3{fill:#36f;}.cls-4{fill:url(#New_Pattern_Swatch_2_copy_2);}</style><pattern id="New_Pattern_Swatch_2_copy_2" data-name="New Pattern Swatch 2 copy 2" width="38.4" height="38.4" patternTransform="translate(-132.75 -92.49)" patternUnits="userSpaceOnUse" viewBox="0 0 38.4 38.4"><rect class="cls-1" width="38.4" height="38.4"/><polygon class="cls-1" points="49.19 37.25 43.81 42.63 36.73 35.54 42.11 30.16 49.19 37.25"/><polygon class="cls-1" points="10.79 37.25 5.41 42.63 -1.67 35.54 3.71 30.16 10.79 37.25"/><polygon class="cls-1" points="13.35 34.22 18.72 39.59 11.64 46.68 6.26 41.3 13.35 34.22"/><polygon class="cls-1" points="49.45 36.69 44.07 42.07 36.98 34.99 42.36 29.61 49.45 36.69"/><polygon class="cls-1" points="49.19 18.05 43.81 23.43 36.73 16.34 42.11 10.96 49.19 18.05"/><path class="cls-2" d="M21.09,37.06a2.06,2.06,0,0,0-.64-.26,1.43,1.43,0,0,0-.65,0,1.49,1.49,0,0,0-.59.36,1.75,1.75,0,0,0-.25.32,1.81,1.81,0,0,0-.13.34,1.64,1.64,0,0,0,0,.38,1.8,1.8,0,0,0,.07.38l1.87,1.87a1.86,1.86,0,0,0,.34.06,1.3,1.3,0,0,0,.34,0,1.4,1.4,0,0,0,.37-.14,2.11,2.11,0,0,0,.36-.27,1.4,1.4,0,0,0,.36-.6,1.38,1.38,0,0,0,0-.64,2.25,2.25,0,0,0-.27-.65,3.33,3.33,0,0,0-.48-.6l-.07-.08A3.07,3.07,0,0,0,21.09,37.06Zm-3.92,1.19.61-.61.45.39c0-.12,0-.23,0-.35a1.86,1.86,0,0,1,.07-.34,1.9,1.9,0,0,1,.2-.47,2.81,2.81,0,0,1,.35-.44,2,2,0,0,1,.81-.51,1.92,1.92,0,0,1,.89-.07,2.44,2.44,0,0,1,.92.33,4.39,4.39,0,0,1,.9.7l.08.07a4.19,4.19,0,0,1,.67.88,2.65,2.65,0,0,1,.34.92,2.1,2.1,0,0,1-.07.9,1.86,1.86,0,0,1-.5.8,2.57,2.57,0,0,1-.46.37,2,2,0,0,1-.48.21l-.29.06h-.3L23.21,43l-.66.67Z"/><path class="cls-2" d="M26.66,35.42a2.65,2.65,0,0,0,.17-.44,1.63,1.63,0,0,0,.05-.43,1.21,1.21,0,0,0-.06-.38L26,33.39l-.62.62a3.74,3.74,0,0,0-.54.66,1.43,1.43,0,0,0-.23.58.76.76,0,0,0,.05.37.84.84,0,0,0,.21.33,1.26,1.26,0,0,0,.31.22,1.13,1.13,0,0,0,.36.06,1,1,0,0,0,.38-.11,1.41,1.41,0,0,0,.39-.29A1.75,1.75,0,0,0,26.66,35.42ZM27.77,35l-.27-.2a2.93,2.93,0,0,1,0,.41,2.09,2.09,0,0,1-.11.43,2.49,2.49,0,0,1-.22.43,1.94,1.94,0,0,1-.32.4,2.5,2.5,0,0,1-.64.47,1.89,1.89,0,0,1-.67.17,1.34,1.34,0,0,1-.63-.09,1.32,1.32,0,0,1-.55-.36A1.63,1.63,0,0,1,23.9,36a1.66,1.66,0,0,1,0-.77,2.3,2.3,0,0,1,.33-.79,4.66,4.66,0,0,1,.65-.82l.73-.72-.3-.31a1.18,1.18,0,0,0-.39-.25,1,1,0,0,0-.42-.06,1.6,1.6,0,0,0-.44.14,1.83,1.83,0,0,0-.43.33,1.55,1.55,0,0,0-.31.4,1.33,1.33,0,0,0-.13.4.72.72,0,0,0,0,.36.65.65,0,0,0,.18.3l-.67.67a1.4,1.4,0,0,1-.31-.53,1.52,1.52,0,0,1-.06-.68,2.22,2.22,0,0,1,.22-.74,2.49,2.49,0,0,1,.55-.75,3,3,0,0,1,.69-.53,1.92,1.92,0,0,1,.73-.25,1.69,1.69,0,0,1,.74.08,1.94,1.94,0,0,1,.69.46l1.8,1.8a3.46,3.46,0,0,0,.45.38,3.1,3.1,0,0,0,.48.28l.06,0-.7.7A1.51,1.51,0,0,1,27.77,35Z"/><path class="cls-2" d="M31.36,30.78a1.4,1.4,0,0,0,.14-.47,1.14,1.14,0,0,0,0-.45.81.81,0,0,0-.22-.38l.63-.63a1.41,1.41,0,0,1,.36.63,1.92,1.92,0,0,1,.06.76,2.83,2.83,0,0,1-.21.78,2.27,2.27,0,0,1-.49.7,2.61,2.61,0,0,1-.93.62,2.36,2.36,0,0,1-1,.12,2.59,2.59,0,0,1-.95-.28,3.6,3.6,0,0,1-.85-.63l-.15-.15a3.63,3.63,0,0,1-.62-.85,2.55,2.55,0,0,1-.29-.95,2.22,2.22,0,0,1,.13-1,2.69,2.69,0,0,1,1.35-1.45,2.19,2.19,0,0,1,.8-.2,1.73,1.73,0,0,1,.78.12,1.92,1.92,0,0,1,.67.43l-.63.63a1.16,1.16,0,0,0-.41-.25,1.26,1.26,0,0,0-.47-.08,1.21,1.21,0,0,0-.49.11,1.47,1.47,0,0,0-.44.31,1.45,1.45,0,0,0-.4.64,1.48,1.48,0,0,0,0,.66,2.09,2.09,0,0,0,.27.64,3.32,3.32,0,0,0,.44.55l.15.15a3.45,3.45,0,0,0,.56.45,1.87,1.87,0,0,0,.63.26,1.34,1.34,0,0,0,.66,0,1.62,1.62,0,0,0,.94-.8Z"/><path class="cls-2" d="M32.21,24.31a1.4,1.4,0,0,0-.11.53,1.63,1.63,0,0,0,.11.6,2.45,2.45,0,0,0,.33.61L34.63,24l0,0a1.78,1.78,0,0,0-1-.49,1.31,1.31,0,0,0-.55.07,1.32,1.32,0,0,0-.54.34A1.52,1.52,0,0,0,32.21,24.31Zm3,3.55a2.42,2.42,0,0,1-1,.2,2.58,2.58,0,0,1-1-.22,2.89,2.89,0,0,1-.89-.61l-.15-.15a3.16,3.16,0,0,1-.69-1,2.56,2.56,0,0,1-.23-1,2.35,2.35,0,0,1,.17-.95,2.27,2.27,0,0,1,.52-.79,2.39,2.39,0,0,1,.88-.59,1.94,1.94,0,0,1,.92-.12,2.46,2.46,0,0,1,.92.29,3.92,3.92,0,0,1,.85.65l.3.3-2.77,2.78,0,0a2.49,2.49,0,0,0,.61.39,2,2,0,0,0,.63.14,1.69,1.69,0,0,0,1.25-.5,1.91,1.91,0,0,0,.56-1.61l.72-.09a2.46,2.46,0,0,1,0,1.1,2.65,2.65,0,0,1-.73,1.18A2.72,2.72,0,0,1,35.19,27.86Z"/><polygon class="cls-1" points="14.88 31.96 20.26 37.34 13.18 44.43 7.8 39.05 14.88 31.96"/><polygon class="cls-1" points="11.05 36.69 5.67 42.07 -1.42 34.99 3.96 29.61 11.05 36.69"/><polygon class="cls-1" points="10.79 18.05 5.41 23.43 -1.67 16.34 3.71 10.96 10.79 18.05"/><polygon class="cls-1" points="13.35 15.02 18.72 20.39 11.64 27.48 6.26 22.1 13.35 15.02"/><polygon class="cls-1" points="49.39 36.1 44.01 41.48 36.92 34.4 42.3 29.02 49.39 36.1"/><polygon class="cls-1" points="49.45 17.49 44.07 22.87 36.98 15.79 42.36 10.41 49.45 17.49"/><polygon class="cls-1" points="49.19 -1.15 43.81 4.22 36.73 -2.86 42.11 -8.24 49.19 -1.15"/><path class="cls-2" d="M4.63,32.32a1.22,1.22,0,0,1,0-.63A1.4,1.4,0,0,1,5,31.11a1.67,1.67,0,0,1,.32-.24,1,1,0,0,1,.31-.12,1,1,0,0,1,.25,0l.26.06a.84.84,0,0,1,0-.27,1.23,1.23,0,0,1,0-.27A1,1,0,0,1,6.21,30a1.31,1.31,0,0,1,.23-.31,1.34,1.34,0,0,1,.42-.31,1,1,0,0,1,.45-.1,1.33,1.33,0,0,1,.52.15,2.52,2.52,0,0,1,.55.42l2.9,2.91-.63.63L7.74,30.43a1.33,1.33,0,0,0-.24-.19.55.55,0,0,0-.24-.07.53.53,0,0,0-.23.06.77.77,0,0,0-.22.16.71.71,0,0,0-.17.24.53.53,0,0,0-.06.23.54.54,0,0,0,0,.22,1.13,1.13,0,0,0,.12.21l0,0,0,0,2.91,2.91-.63.63L6.18,32a1,1,0,0,0-.24-.19.55.55,0,0,0-.24-.07.42.42,0,0,0-.22.05,1,1,0,0,0-.22.16,1.12,1.12,0,0,0-.18.23A.75.75,0,0,0,5,32.4a1,1,0,0,0,0,.17.75.75,0,0,0,.05.16l3.09,3.09-.63.64L3.65,32.57,4.24,32Z"/><path class="cls-2" d="M13.87,33.21l-.22.15-.44-.65.19-.16.15-.14a.59.59,0,0,0,.17-.32,1.22,1.22,0,0,0,0-.38c0-.13,0-.25-.07-.37a2.34,2.34,0,0,0-.09-.28l-.25-.78L8,28.25l.74-.74L12.29,29l.64.29-.28-.63-1.51-3.53.74-.74,2.51,6.46a2.84,2.84,0,0,1,.15.49,2.13,2.13,0,0,1,.05.57,1.8,1.8,0,0,1-.11.59,1.49,1.49,0,0,1-.36.56A3.11,3.11,0,0,1,13.87,33.21Z"/><path class="cls-2" d="M17.94,23.56a.76.76,0,0,0-.34,0,1.58,1.58,0,0,0-.43.15,4.09,4.09,0,0,0-.58.33,7.22,7.22,0,0,1-.77.45,3.24,3.24,0,0,1-.71.23,1.44,1.44,0,0,1-.62,0,1.16,1.16,0,0,1-.53-.31,1.51,1.51,0,0,1-.33-.56,1.65,1.65,0,0,1-.05-.67,2.26,2.26,0,0,1,.24-.72,2.8,2.8,0,0,1,.52-.71,3,3,0,0,1,.74-.55,2.16,2.16,0,0,1,.75-.23,1.6,1.6,0,0,1,.69.08,1.45,1.45,0,0,1,.59.36l-.66.67a.64.64,0,0,0-.32-.18,1,1,0,0,0-.39,0,1.5,1.5,0,0,0-.43.13,1.47,1.47,0,0,0-.42.31,2,2,0,0,0-.33.42,1.42,1.42,0,0,0-.14.39.76.76,0,0,0,0,.34.53.53,0,0,0,.16.27.56.56,0,0,0,.25.16.53.53,0,0,0,.31,0,1.61,1.61,0,0,0,.41-.15,4.94,4.94,0,0,0,.56-.34,8,8,0,0,1,.82-.47,2.83,2.83,0,0,1,.71-.24,1.29,1.29,0,0,1,.62,0,1.15,1.15,0,0,1,.52.32,1.35,1.35,0,0,1,.36.59,1.72,1.72,0,0,1,0,.68,2.3,2.3,0,0,1-.27.74,3.24,3.24,0,0,1-.55.71,3,3,0,0,1-.81.6,2.41,2.41,0,0,1-.8.24,1.82,1.82,0,0,1-.74-.07,1.48,1.48,0,0,1-.58-.37l.66-.66a.92.92,0,0,0,.45.23,1.07,1.07,0,0,0,.47,0,1.49,1.49,0,0,0,.43-.19,2.28,2.28,0,0,0,.38-.3,2.23,2.23,0,0,0,.4-.53,1,1,0,0,0,.13-.48.75.75,0,0,0,0-.26.6.6,0,0,0-.14-.21A.83.83,0,0,0,17.94,23.56Z"/><path class="cls-2" d="M21.09,17.86a2.06,2.06,0,0,0-.64-.26,1.43,1.43,0,0,0-.65,0,1.49,1.49,0,0,0-.59.36,1.75,1.75,0,0,0-.25.32,1.81,1.81,0,0,0-.13.34,1.64,1.64,0,0,0,0,.38,1.8,1.8,0,0,0,.07.38l1.87,1.87a1.86,1.86,0,0,0,.34.06,1.3,1.3,0,0,0,.34,0,1.4,1.4,0,0,0,.37-.14,2.11,2.11,0,0,0,.36-.27,1.4,1.4,0,0,0,.36-.6,1.38,1.38,0,0,0,0-.64,2.25,2.25,0,0,0-.27-.65,3.33,3.33,0,0,0-.48-.6l-.07-.08A3.07,3.07,0,0,0,21.09,17.86Zm-3.92,1.19.61-.61.45.39c0-.12,0-.23,0-.35a1.86,1.86,0,0,1,.07-.34,1.9,1.9,0,0,1,.2-.47,2.81,2.81,0,0,1,.35-.44,2,2,0,0,1,.81-.51,1.92,1.92,0,0,1,.89-.07,2.44,2.44,0,0,1,.92.33,4.39,4.39,0,0,1,.9.7l.08.07a4.19,4.19,0,0,1,.67.88,2.65,2.65,0,0,1,.34.92,2.1,2.1,0,0,1-.07.9,1.86,1.86,0,0,1-.5.8,2.57,2.57,0,0,1-.46.37,2,2,0,0,1-.48.21l-.29.06h-.3l1.86,1.86-.66.67Z"/><path class="cls-2" d="M26.66,16.22a2.65,2.65,0,0,0,.17-.44,1.63,1.63,0,0,0,.05-.43,1.21,1.21,0,0,0-.06-.38L26,14.19l-.62.62a3.74,3.74,0,0,0-.54.66,1.43,1.43,0,0,0-.23.58.76.76,0,0,0,.05.37.84.84,0,0,0,.21.33,1.26,1.26,0,0,0,.31.22,1.13,1.13,0,0,0,.36.06,1,1,0,0,0,.38-.11,1.41,1.41,0,0,0,.39-.29A1.75,1.75,0,0,0,26.66,16.22Zm1.11-.38-.27-.2a2.93,2.93,0,0,1,0,.41,2.09,2.09,0,0,1-.11.43,2.49,2.49,0,0,1-.22.43,1.94,1.94,0,0,1-.32.4,2.5,2.5,0,0,1-.64.47,1.89,1.89,0,0,1-.67.17,1.34,1.34,0,0,1-.63-.09,1.32,1.32,0,0,1-.55-.36,1.63,1.63,0,0,1-.43-.68,1.66,1.66,0,0,1,0-.77,2.3,2.3,0,0,1,.33-.79,4.66,4.66,0,0,1,.65-.82l.73-.72-.3-.31a1.18,1.18,0,0,0-.39-.25,1,1,0,0,0-.42-.06,1.6,1.6,0,0,0-.44.14,1.83,1.83,0,0,0-.43.33,1.55,1.55,0,0,0-.31.4,1.33,1.33,0,0,0-.13.4.72.72,0,0,0,0,.36.65.65,0,0,0,.18.3l-.67.67a1.4,1.4,0,0,1-.31-.53,1.52,1.52,0,0,1-.06-.68,2.22,2.22,0,0,1,.22-.74,2.49,2.49,0,0,1,.55-.75,3,3,0,0,1,.69-.53,1.92,1.92,0,0,1,.73-.25,1.69,1.69,0,0,1,.74.08,1.94,1.94,0,0,1,.69.46l1.8,1.8a3.46,3.46,0,0,0,.45.38,3.1,3.1,0,0,0,.48.28l.06,0L28,16A1.51,1.51,0,0,1,27.77,15.84Z"/><path class="cls-2" d="M31.36,11.58a1.4,1.4,0,0,0,.14-.47,1.14,1.14,0,0,0,0-.45.81.81,0,0,0-.22-.38l.63-.63a1.41,1.41,0,0,1,.36.63,1.92,1.92,0,0,1,.06.76,2.83,2.83,0,0,1-.21.78,2.27,2.27,0,0,1-.49.7,2.61,2.61,0,0,1-.93.62,2.36,2.36,0,0,1-1,.12,2.59,2.59,0,0,1-.95-.28,3.6,3.6,0,0,1-.85-.63l-.15-.15a3.63,3.63,0,0,1-.62-.85,2.55,2.55,0,0,1-.29-.95,2.22,2.22,0,0,1,.13-1A2.69,2.69,0,0,1,28.32,8a2.19,2.19,0,0,1,.8-.2,1.73,1.73,0,0,1,.78.12,1.92,1.92,0,0,1,.67.43L29.94,9a1.16,1.16,0,0,0-.41-.25,1.26,1.26,0,0,0-.47-.08,1.21,1.21,0,0,0-.49.11,1.47,1.47,0,0,0-.44.31,1.45,1.45,0,0,0-.4.64,1.48,1.48,0,0,0,0,.66A2.09,2.09,0,0,0,28,11a3.32,3.32,0,0,0,.44.55l.15.15a3.45,3.45,0,0,0,.56.45,1.87,1.87,0,0,0,.63.26,1.34,1.34,0,0,0,.66,0,1.62,1.62,0,0,0,.94-.8Z"/><path class="cls-2" d="M32.21,5.11a1.4,1.4,0,0,0-.11.53,1.63,1.63,0,0,0,.11.6,2.45,2.45,0,0,0,.33.61l2.09-2.09,0,0a1.78,1.78,0,0,0-1-.49,1.31,1.31,0,0,0-.55.07,1.32,1.32,0,0,0-.54.34A1.52,1.52,0,0,0,32.21,5.11Zm3,3.55a2.42,2.42,0,0,1-1,.2,2.58,2.58,0,0,1-1-.22A2.89,2.89,0,0,1,32.35,8l-.15-.15a3.16,3.16,0,0,1-.69-1,2.56,2.56,0,0,1-.23-1,2.35,2.35,0,0,1,.17-.95A2.27,2.27,0,0,1,32,4.11a2.39,2.39,0,0,1,.88-.59,1.94,1.94,0,0,1,.92-.12,2.46,2.46,0,0,1,.92.29,3.92,3.92,0,0,1,.85.65l.3.3L33.07,7.42l0,0a2.49,2.49,0,0,0,.61.39,2,2,0,0,0,.63.14,1.69,1.69,0,0,0,1.25-.5,1.91,1.91,0,0,0,.56-1.61l.72-.09a2.46,2.46,0,0,1,0,1.1,2.65,2.65,0,0,1-.73,1.18A2.72,2.72,0,0,1,35.19,8.66Z"/><polygon class="cls-1" points="14.88 12.76 20.26 18.14 13.18 25.23 7.8 19.85 14.88 12.76"/><polygon class="cls-1" points="17.26 29.02 22.64 34.4 15.56 41.48 10.18 36.1 17.26 29.02"/><polygon class="cls-1" points="27.12 38.02 32.5 43.4 25.41 50.49 20.03 45.11 27.12 38.02"/><polygon class="cls-1" points="10.99 36.1 5.61 41.48 -1.48 34.4 3.9 29.02 10.99 36.1"/><polygon class="cls-1" points="11.05 17.49 5.67 22.87 -1.42 15.79 3.96 10.41 11.05 17.49"/><polygon class="cls-1" points="10.79 -1.15 5.41 4.22 -1.67 -2.86 3.71 -8.24 10.79 -1.15"/><polygon class="cls-1" points="13.35 -4.18 18.72 1.19 11.64 8.28 6.26 2.9 13.35 -4.18"/><polygon class="cls-1" points="49.39 16.9 44.01 22.28 36.92 15.2 42.3 9.82 49.39 16.9"/><polygon class="cls-1" points="49.45 -1.71 44.07 3.67 36.98 -3.41 42.36 -8.79 49.45 -1.71"/><path class="cls-2" d="M4.63,13.12a1.22,1.22,0,0,1,0-.63A1.4,1.4,0,0,1,5,11.91a1.67,1.67,0,0,1,.32-.24,1,1,0,0,1,.31-.12,1,1,0,0,1,.25,0l.26.06a.84.84,0,0,1,0-.27,1.23,1.23,0,0,1,0-.27,1,1,0,0,1,.13-.32,1.31,1.31,0,0,1,.23-.31,1.34,1.34,0,0,1,.42-.31,1,1,0,0,1,.45-.1,1.33,1.33,0,0,1,.52.15,2.52,2.52,0,0,1,.55.42l2.9,2.91-.63.63L7.74,11.23A1.33,1.33,0,0,0,7.5,11,.55.55,0,0,0,7.26,11,.53.53,0,0,0,7,11a.77.77,0,0,0-.22.16.71.71,0,0,0-.17.24.53.53,0,0,0-.06.23.54.54,0,0,0,0,.22,1.13,1.13,0,0,0,.12.21l0,0,0,0,2.91,2.91-.63.63L6.18,12.79a1,1,0,0,0-.24-.19.55.55,0,0,0-.24-.07.42.42,0,0,0-.22.05,1,1,0,0,0-.22.16,1.12,1.12,0,0,0-.18.23A.75.75,0,0,0,5,13.2a1,1,0,0,0,0,.17.75.75,0,0,0,.05.16l3.09,3.09-.63.64L3.65,13.37l.59-.59Z"/><path class="cls-2" d="M13.87,14l-.22.15-.44-.65.19-.16.15-.14a.59.59,0,0,0,.17-.32,1.22,1.22,0,0,0,0-.38c0-.13,0-.25-.07-.37a2.34,2.34,0,0,0-.09-.28l-.25-.78L8,9.05l.74-.74,3.58,1.44.64.29-.28-.63L11.14,5.88l.74-.74,2.51,6.46a2.84,2.84,0,0,1,.15.49,2.13,2.13,0,0,1,.05.57,1.8,1.8,0,0,1-.11.59,1.49,1.49,0,0,1-.36.56Z"/><path class="cls-2" d="M17.94,4.36a.76.76,0,0,0-.34,0,1.58,1.58,0,0,0-.43.15,4.09,4.09,0,0,0-.58.33,7.22,7.22,0,0,1-.77.45,3.24,3.24,0,0,1-.71.23,1.44,1.44,0,0,1-.62,0A1.16,1.16,0,0,1,14,5.19a1.51,1.51,0,0,1-.33-.56A1.65,1.65,0,0,1,13.58,4a2.26,2.26,0,0,1,.24-.72,2.8,2.8,0,0,1,.52-.71A3,3,0,0,1,15.08,2a2.16,2.16,0,0,1,.75-.23,1.6,1.6,0,0,1,.69.08,1.45,1.45,0,0,1,.59.36l-.66.67a.64.64,0,0,0-.32-.18,1,1,0,0,0-.39,0,1.5,1.5,0,0,0-.43.13,1.47,1.47,0,0,0-.42.31,2,2,0,0,0-.33.42,1.42,1.42,0,0,0-.14.39.76.76,0,0,0,0,.34.53.53,0,0,0,.16.27.56.56,0,0,0,.25.16.53.53,0,0,0,.31,0,1.61,1.61,0,0,0,.41-.15,4.94,4.94,0,0,0,.56-.34A8,8,0,0,1,17,3.71a2.83,2.83,0,0,1,.71-.24,1.29,1.29,0,0,1,.62,0,1.15,1.15,0,0,1,.52.32,1.35,1.35,0,0,1,.36.59,1.72,1.72,0,0,1,0,.68,2.3,2.3,0,0,1-.27.74,3.24,3.24,0,0,1-.55.71,3,3,0,0,1-.81.6,2.41,2.41,0,0,1-.8.24A1.82,1.82,0,0,1,16,7.31a1.48,1.48,0,0,1-.58-.37l.66-.66a.92.92,0,0,0,.45.23,1.07,1.07,0,0,0,.47,0,1.49,1.49,0,0,0,.43-.19,2.28,2.28,0,0,0,.38-.3,2.23,2.23,0,0,0,.4-.53A1,1,0,0,0,18.38,5a.75.75,0,0,0,0-.26.6.6,0,0,0-.14-.21A.83.83,0,0,0,17.94,4.36Z"/><path class="cls-2" d="M21.09-1.34a2.06,2.06,0,0,0-.64-.26,1.43,1.43,0,0,0-.65,0,1.49,1.49,0,0,0-.59.36A1.75,1.75,0,0,0,19-.89a1.81,1.81,0,0,0-.13.34,1.64,1.64,0,0,0,0,.38,1.8,1.8,0,0,0,.07.38l1.87,1.87a1.86,1.86,0,0,0,.34.06,1.3,1.3,0,0,0,.34,0A1.4,1.4,0,0,0,21.78,2a2.11,2.11,0,0,0,.36-.27,1.4,1.4,0,0,0,.36-.6,1.38,1.38,0,0,0,0-.64,2.25,2.25,0,0,0-.27-.65,3.33,3.33,0,0,0-.48-.6L21.7-.86A3.07,3.07,0,0,0,21.09-1.34ZM17.17-.15l.61-.61.45.39c0-.12,0-.23,0-.35a1.86,1.86,0,0,1,.07-.34,1.9,1.9,0,0,1,.2-.47A2.81,2.81,0,0,1,18.84-2a2,2,0,0,1,.81-.51,1.92,1.92,0,0,1,.89-.07,2.44,2.44,0,0,1,.92.33,4.39,4.39,0,0,1,.9.7l.08.07a4.19,4.19,0,0,1,.67.88,2.65,2.65,0,0,1,.34.92,2.1,2.1,0,0,1-.07.9,1.86,1.86,0,0,1-.5.8,2.57,2.57,0,0,1-.46.37,2,2,0,0,1-.48.21l-.29.06h-.3l1.86,1.86-.66.67Z"/><polygon class="cls-1" points="14.88 -6.44 20.26 -1.06 13.18 6.03 7.8 0.65 14.88 -6.44"/><polygon class="cls-1" points="17.26 9.82 22.64 15.2 15.56 22.28 10.18 16.9 17.26 9.82"/><polygon class="cls-1" points="27.12 18.82 32.5 24.2 25.41 31.29 20.03 25.91 27.12 18.82"/><polygon class="cls-1" points="10.99 16.9 5.61 22.28 -1.48 15.2 3.9 9.82 10.99 16.9"/><polygon class="cls-1" points="11.05 -1.71 5.67 3.67 -1.42 -3.41 3.96 -8.79 11.05 -1.71"/><polygon class="cls-1" points="49.39 -2.3 44.01 3.08 36.92 -4 42.3 -9.38 49.39 -2.3"/><polygon class="cls-1" points="17.26 -9.38 22.64 -4 15.56 3.08 10.18 -2.3 17.26 -9.38"/><polygon class="cls-1" points="27.12 -0.38 32.5 5 25.41 12.09 20.03 6.71 27.12 -0.38"/><polygon class="cls-1" points="10.99 -2.3 5.61 3.08 -1.48 -4 3.9 -9.38 10.99 -2.3"/></pattern></defs><g id="Layer_2" data-name="Layer 2"><g id="Layer_1-2" data-name="Layer 1"><rect class="cls-3" width="38.4" height="38.4"/><rect class="cls-4" width="38.4" height="38.4"/></g></g></svg>